<?xml version="1.0" encoding="UTF-8" standalone="no"?>
<!-- Generator: Adobe Illustrator 16.0.0, SVG Export Plug-In . SVG Version: 6.00 Build 0)  -->

<svg
   xmlns:dc="http://purl.org/dc/elements/1.1/"
   xmlns:cc="http://creativecommons.org/ns#"
   xmlns:rdf="http://www.w3.org/1999/02/22-rdf-syntax-ns#"
   xmlns:svg="http://www.w3.org/2000/svg"
   xmlns="http://www.w3.org/2000/svg"
   xmlns:sodipodi="http://sodipodi.sourceforge.net/DTD/sodipodi-0.dtd"
   xmlns:inkscape="http://www.inkscape.org/namespaces/inkscape"
   version="1.1"
   id="Layer_1"
   x="0px"
   y="0px"
   width="4.1845522in"
   height="4.1845727in"
   viewBox="0 0 401.71701 401.71898"
   enable-background="new 0 0 266.893 266.895"
   xml:space="preserve"
   sodipodi:docname="F_icon.svg"
   inkscape:version="0.92.4 5da689c313, 2019-01-14"><metadata
   id="metadata9"><rdf:RDF><cc:Work
       rdf:about=""><dc:format>image/svg+xml</dc:format><dc:type
         rdf:resource="http://purl.org/dc/dcmitype/StillImage" /><dc:title></dc:title></cc:Work></rdf:RDF></metadata><defs
   id="defs7" /><sodipodi:namedview
   pagecolor="#ffffff"
   bordercolor="#666666"
   borderopacity="1"
   objecttolerance="10"
   gridtolerance="10"
   guidetolerance="10"
   inkscape:pageopacity="0"
   inkscape:pageshadow="2"
   inkscape:window-width="640"
   inkscape:window-height="480"
   id="namedview5"
   showgrid="false"
   fit-margin-top="0.75"
   fit-margin-left="0.75"
   fit-margin-right="0.75"
   fit-margin-bottom="0.75"
   units="in"
   inkscape:zoom="0.8842429"
   inkscape:cx="200.8585"
   inkscape:cy="200.8595"
   inkscape:window-x="0"
   inkscape:window-y="27"
   inkscape:window-maximized="0"
   inkscape:current-layer="Layer_1" />
<path
   id="Blue_1_"
   d="m 315.494,329.719 c 7.854,0 14.223,-6.369 14.223,-14.225 V 86.224 C 329.717,78.367 323.349,72 315.494,72 H 86.224 C 78.367,72 72,78.367 72,86.224 v 229.27 c 0,7.855 6.366,14.225 14.224,14.225 z"
   inkscape:connector-curvature="0"
   style="fill:#3c5a99" />
<path
   id="f"
   d="m 249.821,329.719 v -99.803 h 33.499 l 5.016,-38.895 h -38.515 v -24.832 c 0,-11.261 3.127,-18.935 19.275,-18.935 l 20.596,-0.009 v -34.788 c -3.562,-0.474 -15.788,-1.533 -30.012,-1.533 -29.695,0 -50.025,18.126 -50.025,51.413 v 28.684 H 176.07 v 38.895 h 33.585 v 99.803 z"
   inkscape:connector-curvature="0"
   style="fill:#ffffff" />
</svg>