<?xml version="1.0" encoding="UTF-8" standalone="no"?>
<svg
   xmlns:dc="http://purl.org/dc/elements/1.1/"
   xmlns:cc="http://creativecommons.org/ns#"
   xmlns:rdf="http://www.w3.org/1999/02/22-rdf-syntax-ns#"
   xmlns:svg="http://www.w3.org/2000/svg"
   xmlns="http://www.w3.org/2000/svg"
   xmlns:sodipodi="http://sodipodi.sourceforge.net/DTD/sodipodi-0.dtd"
   xmlns:inkscape="http://www.inkscape.org/namespaces/inkscape"
   viewBox="0 0 466.35194 318.56516"
   height="3.3183875in"
   width="4.8578334in"
   xml:space="preserve"
   id="svg2"
   version="1.1"
   sodipodi:docname="Envelope_Color.svg"
   inkscape:version="0.92.4 5da689c313, 2019-01-14"><sodipodi:namedview
     pagecolor="#ffffff"
     bordercolor="#666666"
     borderopacity="1"
     objecttolerance="10"
     gridtolerance="10"
     guidetolerance="10"
     inkscape:pageopacity="0"
     inkscape:pageshadow="2"
     inkscape:window-width="640"
     inkscape:window-height="480"
     id="namedview15"
     showgrid="false"
     fit-margin-top="0.75"
     fit-margin-left="0.75"
     fit-margin-right="0.75"
     fit-margin-bottom="0.75"
     inkscape:showpageshadow="false"
     inkscape:zoom="0.27895495"
     inkscape:cx="233.17336"
     inkscape:cy="159.27844"
     inkscape:window-x="0"
     inkscape:window-y="27"
     inkscape:window-maximized="0"
     inkscape:current-layer="svg2"
     units="in" /><metadata
     id="metadata8"><rdf:RDF><cc:Work
         rdf:about=""><dc:format>image/svg+xml</dc:format><dc:type
           rdf:resource="http://purl.org/dc/dcmitype/StillImage" /><dc:title></dc:title></cc:Work></rdf:RDF></metadata><defs
     id="defs6"><clipPath
       id="clipPath20"
       clipPathUnits="userSpaceOnUse"><path
         id="path18"
         d="M 0,0 H 8872 V 2834.65 H 0 Z"
         inkscape:connector-curvature="0" /></clipPath></defs><g
     transform="matrix(1.3333333,0,0,-1.3333333,-358.31999,348.25999)"
     id="g10"><g
       transform="scale(0.1)"
       id="g12"><g
         id="g14"><g
           clip-path="url(#clipPath20)"
           id="g16"><path
             id="path22"
             style="fill:#414e7e;fill-opacity:1;fill-rule:nonzero;stroke:none"
             d="m 4643.62,1224.45 c -36.1,-36.39 -94.8,-36.39 -130.94,0 l -861.62,761.14 V 841.281 c 0,-43.519 35.11,-78.57 78.51,-78.57 h 1690.64 c 43.41,0 78.52,35.051 78.52,78.57 V 1979.84 l -855.11,-755.39"
             inkscape:connector-curvature="0" /><path
             id="path24"
             style="fill:#fab220;fill-opacity:1;fill-rule:nonzero;stroke:none"
             d="m 3651.06,1100.71 c -74.51,6.81 -148.73,16.97 -221.69,31.24 -70.6,13.83 -144.21,31.39 -201.97,76.83 23.55,-17.94 47.23,-35.72 72.39,-51.34 46.11,-28.46 97.3,-51.44 148.54,-68.62 66,-22.08 133.92,-37.11 202.73,-46.78 v 58.67"
             inkscape:connector-curvature="0" /><path
             id="path26"
             style="fill:#414e7e;fill-opacity:1;fill-rule:nonzero;stroke:none"
             d="m 5434.07,2070.67 h -0.56 c -0.75,0.24 -4.95,1.28 -6.27,1.28 l -1700.26,-0.24 c -8.91,-1.04 -15.71,-8.1 -15.71,-17.26 0,-4.73 1.84,-8.93 4.72,-12.09 l 796.69,-615.99 c 44.27,-44.27 85.93,-45.07 130.94,0 l 798.29,617.31 c 2.36,3.17 3.92,6.56 3.92,10.48 0,7.32 -5.47,13.59 -11.76,16.51"
             inkscape:connector-curvature="0" /><path
             id="path28"
             style="fill:#fab220;fill-opacity:1;fill-rule:nonzero;stroke:none"
             d="m 5507.03,1171.17 c 52.76,37.51 110.89,129.38 64.98,190.17 -65.78,87.06 -221.78,-5.81 -289.31,-42.9 -279.88,-153.69 -553.81,-311.68 -868.31,-390.952 -88.06,-22.179 -177.54,-38.84 -268.23,-46.726 -187.86,-16.274 -383.41,-11.172 -563.76,47.199 -48.14,15.578 -96.12,36.379 -139.34,62.238 -23.64,14.111 -45.87,30.251 -67.95,46.531 54.21,-41.199 123.25,-57.152 189.5,-69.652 125.19,-23.687 254.25,-35.297 381.76,-37.558 115.14,-2.032 230,14.48 341.4,41.808 107.03,26.274 210.7,63.652 310.42,109.472 57.43,26.38 113.37,55.83 167.93,87.35 191.03,110.37 364.96,262.51 584.48,318.43 59.88,15.24 125.66,25.81 185.45,3.21 82.62,-31.24 144.44,-134.26 85.98,-211.97 -31.38,-41.68 -69.46,-74.28 -115,-106.65"
             inkscape:connector-curvature="0" /></g></g></g></g></svg>