<?xml version="1.0" encoding="UTF-8" standalone="no"?>
<svg
   xmlns:dc="http://purl.org/dc/elements/1.1/"
   xmlns:cc="http://creativecommons.org/ns#"
   xmlns:rdf="http://www.w3.org/1999/02/22-rdf-syntax-ns#"
   xmlns:svg="http://www.w3.org/2000/svg"
   xmlns="http://www.w3.org/2000/svg"
   xmlns:sodipodi="http://sodipodi.sourceforge.net/DTD/sodipodi-0.dtd"
   xmlns:inkscape="http://www.inkscape.org/namespaces/inkscape"
   viewBox="0 0 378.66665 309.33331"
   height="3.2222221in"
   width="3.9444444in"
   xml:space="preserve"
   id="svg2"
   version="1.1"
   sodipodi:docname="yt_icon_rgb.svg"
   inkscape:version="0.92.4 5da689c313, 2019-01-14"><sodipodi:namedview
     pagecolor="#ffffff"
     bordercolor="#666666"
     borderopacity="1"
     objecttolerance="10"
     gridtolerance="10"
     guidetolerance="10"
     inkscape:pageopacity="0"
     inkscape:pageshadow="2"
     inkscape:window-width="640"
     inkscape:window-height="480"
     id="namedview14"
     showgrid="false"
     fit-margin-top="0.75"
     fit-margin-left="0.75"
     fit-margin-right="0.75"
     fit-margin-bottom="0.75"
     units="in"
     inkscape:zoom="0.921875"
     inkscape:cx="189.33293"
     inkscape:cy="154.66639"
     inkscape:window-x="0"
     inkscape:window-y="27"
     inkscape:window-maximized="0"
     inkscape:current-layer="svg2" /><metadata
     id="metadata8"><rdf:RDF><cc:Work
         rdf:about=""><dc:format>image/svg+xml</dc:format><dc:type
           rdf:resource="http://purl.org/dc/dcmitype/StillImage" /><dc:title></dc:title></cc:Work></rdf:RDF></metadata><defs
     id="defs6"><clipPath
       id="clipPath18"
       clipPathUnits="userSpaceOnUse"><path
         id="path16"
         d="M 0,192 H 192 V 0 H 0 Z"
         inkscape:connector-curvature="0" /></clipPath></defs><g
     transform="matrix(1.3333333,0,0,-1.3333333,61.332934,282.66693)"
     id="g10"><g
       id="g12"><g
         clip-path="url(#clipPath18)"
         id="g14"><g
           transform="translate(180.3223,138.6372)"
           id="g20"><path
             id="path22"
             style="fill:#ff0000;fill-opacity:1;fill-rule:nonzero;stroke:none"
             d="m 0,0 c -2.024,7.622 -7.987,13.624 -15.561,15.661 -13.724,3.702 -68.761,3.702 -68.761,3.702 0,0 -55.037,0 -68.762,-3.702 -7.573,-2.037 -13.537,-8.039 -15.561,-15.661 -3.677,-13.814 -3.677,-42.637 -3.677,-42.637 0,0 0,-28.822 3.677,-42.638 2.024,-7.621 7.988,-13.623 15.561,-15.661 13.725,-3.701 68.762,-3.701 68.762,-3.701 0,0 55.037,0 68.761,3.701 7.574,2.038 13.537,8.04 15.561,15.661 3.678,13.816 3.678,42.638 3.678,42.638 0,0 0,28.823 -3.678,42.637"
             inkscape:connector-curvature="0" /></g><g
           transform="translate(78,69.8311)"
           id="g24"><path
             id="path26"
             style="fill:#ffffff;fill-opacity:1;fill-rule:nonzero;stroke:none"
             d="M 0,0 46,26.168 0,52.338 Z"
             inkscape:connector-curvature="0" /></g></g></g></g></svg>